<svg id="Layer_3" data-name="Layer 3" xmlns="http://www.w3.org/2000/svg" viewBox="0 0 375.82 271.53"><title>Anythin’ Goes LLC</title><g style="opacity:0.2"><path d="M230.3,55.28c0-24.4-19.17-48-41.8-48s-40.15,23.62-40.15,48A45.58,45.58,0,0,0,162.3,88.46v27.12h49.55V92.17C223,84.27,230.3,70.7,230.3,55.28Z"/><path d="M159.77,95.73v16.84c0,.08,0,.16,0,.24,0,.26,0,.52,0,.77a11.13,11.13,0,0,0,6.24,10h47.25a11.13,11.13,0,0,0,6.25-10c0-.27,0-.53,0-.8,0-.07,0-.14,0-.21V95.73c12-10.78,19.33-26.87,19.33-42.66C238.81,25.38,216.28,2,189.62,2s-49.19,23.38-49.19,51.07C140.43,68.86,147.78,85,159.77,95.73Zm29.85-82.47c20.55,0,37.92,18.22,37.92,39.8,0,13.17-6.77,27.19-17.26,35.7a5.63,5.63,0,0,0-2.08,4.37v9.29H171V93.14A5.63,5.63,0,0,0,169,88.76c-10.49-8.51-17.26-22.53-17.26-35.7C151.7,31.49,169.06,13.26,189.62,13.26Z"/><path d="M178.86,148.1h21.52a8,8,0,0,0,7.93-7.1H170.94A8,8,0,0,0,178.86,148.1Z"/><path d="M213.63,127.85c0-.12,0-.23,0-.35h-48c0,.11,0,.23,0,.35a10.23,10.23,0,0,0,5.78,9.21h36.47A10.24,10.24,0,0,0,213.63,127.85Z"/><path d="M176.08,64.17l10.59-1.5-6.34,25.42a1.59,1.59,0,0,0,1,1.87,1.66,1.66,0,0,0,.58.11,1.61,1.61,0,0,0,1.4-.83L204.8,49.81a1.59,1.59,0,0,0-1.57-2.35l-10.4,1.16,3.56-23.23a1.59,1.59,0,0,0-3-1l-19,37.44a1.6,1.6,0,0,0,1.65,2.3Z"/><path d="M14.21,237.81,2,270.93H13.37l1.19-3.87H26.48l1.19,3.87H39L26.83,237.81Zm3,20.5,3.28-10.67,3.28,10.67Z"/><polygon points="62.66 253.51 51.14 237.81 40.82 237.81 40.82 270.93 50.85 270.93 50.85 254.15 63.06 270.93 72.69 270.93 72.69 237.81 62.66 237.81 62.66 253.51"/><polygon points="91.9 248.98 85.74 237.81 74.47 237.81 86.88 257.77 86.88 270.93 96.91 270.93 96.91 257.77 109.22 237.81 97.95 237.81 91.9 248.98"/><polygon points="111.2 246.55 120.09 246.55 120.09 270.93 130.12 270.93 130.12 246.55 138.95 246.55 138.95 237.81 111.2 237.81 111.2 246.55"/><polygon points="164.17 249.53 152.3 249.53 152.3 237.81 142.27 237.81 142.27 270.93 152.3 270.93 152.3 258.27 164.17 258.27 164.17 270.93 174.2 270.93 174.2 237.81 164.17 237.81 164.17 249.53"/><rect x="179.3" y="237.81" width="10.03" height="33.12"/><polygon points="216.34 253.51 204.82 237.81 194.49 237.81 194.49 270.93 204.52 270.93 204.52 254.15 216.74 270.93 226.37 270.93 226.37 237.81 216.34 237.81 216.34 253.51"/><path d="M235.89,237.32a5.24,5.24,0,0,0-5.17,5.21,4.34,4.34,0,0,0,4.32,4.62,3.91,3.91,0,0,0,1.29-.2,9.8,9.8,0,0,1-4.51,4.76l3.62,2.93c3.88-2.73,6.21-6.55,6.21-10.92C241.65,239.65,238.92,237.32,235.89,237.32Z"/><path d="M260.61,260h6.16v1.19a9.79,9.79,0,0,1-5.17,1.49c-4.81,0-8-3.67-8-8.29s3.23-8.29,8-8.29a6.91,6.91,0,0,1,6.11,4.12l8.45-4.32c-2.09-4.27-6.66-8.64-14.55-8.64-10,0-18.22,6.5-18.22,17.13s8.19,17.13,18.22,17.13a19.63,19.63,0,0,0,15.14-6.71V251.27H260.61Z"/><path d="M297.54,237.27c-10.23,0-18.12,7-18.12,17.13s7.9,17.13,18.12,17.13,18.13-6.95,18.13-17.13S307.77,237.27,297.54,237.27Zm0,25.42c-4.82,0-7.94-3.67-7.94-8.29s3.12-8.29,7.94-8.29,7.95,3.68,7.95,8.29S302.36,262.69,297.54,262.69Z"/><polygon points="318.88 270.93 344.01 270.93 344.01 262.19 328.91 262.19 328.91 258.57 343.66 258.57 343.66 249.83 328.91 249.83 328.91 246.55 344.01 246.55 344.01 237.81 318.88 237.81 318.88 270.93"/><path d="M357.4,247.25c0-.84.54-1.49,2.53-1.49a16.72,16.72,0,0,1,9.73,3.28l5.36-7.1A21.87,21.87,0,0,0,361,237.32c-9.08,0-13.75,5.36-13.75,11,0,13.06,18.47,9.83,18.47,13,0,1.29-1.79,1.79-3.68,1.79a15.43,15.43,0,0,1-10.67-4.27l-5.21,7.45c3.52,3.18,8.34,5.26,15.39,5.26,8.89,0,14.3-4.22,14.3-11.52C375.82,247.7,357.4,250.38,357.4,247.25Z"/><path d="M275.19,72.26a14.65,14.65,0,0,1,4.69-3.08c-6.08-5-15.39-7.6-27.5-7.6-2.23,0-4.54.09-6.89.25-.26,1.82-.62,3.63-1,5.42,2.74-.24,5.4-.38,7.94-.38C259.83,66.88,268.92,68,275.19,72.26Z"/><path d="M127.24,66.2c0,.14,0,.29,0,.44,2.42,0,4.94.14,7.53.38q-.62-2.69-1-5.41-3.58-.28-6.93-.28h-.57A12.19,12.19,0,0,1,127.24,66.2Z"/><path d="M267.11,130.51a3.63,3.63,0,0,1,0-3.87c9.19-10.08,15.6-20,18.65-29.07l-.32,0a14.75,14.75,0,0,1-5-.89c-2.9,7.9-8.74,16.75-16.95,25.8a3.52,3.52,0,0,1-4.3-.11A219.47,219.47,0,0,0,227.84,97.8c-.35.36-.68.73-1,1.08v4.63a215.11,215.11,0,0,1,28.53,22.73,3.73,3.73,0,0,1,.16,4.5,228,228,0,0,1-46.06,33.34c-6,3.33-12.06,6.37-18.12,9.13a5.27,5.27,0,0,1-3.86-.14c-5.94-2.74-11.89-5.76-17.78-9.06a228.12,228.12,0,0,1-46-33.59,3.68,3.68,0,0,1,0-4.25,214.09,214.09,0,0,1,28.71-22.74V98.88c-.37-.37-.71-.75-1.07-1.13a219,219,0,0,0-31.31,24.38,3.72,3.72,0,0,1-4.19.21C100.12,104.87,93,88.16,98.95,77.58a16.13,16.13,0,0,1,3.19-4,18.5,18.5,0,0,1,2.17-1.69,12.14,12.14,0,0,1-1.4-5.35A22.51,22.51,0,0,0,94.32,75c-7.21,12.87.14,31.81,17.71,51.27a3.68,3.68,0,0,1,0,4C98,145.7,90.47,160.81,91.55,172.86a14.68,14.68,0,0,1,5.2-2.44c0-10,6.89-22.65,18.74-35.8a3.82,3.82,0,0,1,4.32-.34c12.45,12,28.53,23.85,47.26,34.35q6.61,3.7,13.3,6.95c.6.38,1.76,1.33.27,2.18C161,185.59,142,190,126.86,190a59.89,59.89,0,0,1-12.38-1.2,14.75,14.75,0,0,1-2.45,4.86,62,62,0,0,0,14.83,1.63c17,0,37.75-5,59.34-14a10.39,10.39,0,0,1,6.94.1h0c21.59,9.06,42.61,14.2,59.3,14.2,16.23,0,27.46-4.72,32.47-13.66C292.15,169,284.76,150,267.11,130.51Zm13.18,48.79c-5.07,9-17.94,10.95-27.85,10.95-15.23,0-34.31-4.5-54.13-12.49-1.5-.85-.34-1.73.26-2.09q6.71-3.25,13.43-7c18.79-10.44,34.92-22.27,47.43-34.2a3.83,3.83,0,0,1,4.28.39C279.22,152.24,286.19,168.79,280.29,179.3Z"/><path d="M109.1,184.92a8.81,8.81,0,1,1-8.62-9A8.8,8.8,0,0,1,109.1,184.92Z"/><circle cx="285.47" cy="82.84" r="8.81" transform="translate(196.64 366.5) rotate(-88.79)"/><circle cx="115.06" cy="66.2" r="7.26" transform="translate(46.43 179.83) rotate(-88.78)"/></g><path d="M228.3,53.28c0-24.4-19.17-48-41.8-48s-40.15,23.62-40.15,48A45.58,45.58,0,0,0,160.3,86.46v27.12h49.55V90.17C221,82.27,228.3,68.7,228.3,53.28Z" style="fill:#f7d072"/><path d="M157.77,93.73v16.84c0,.08,0,.16,0,.24,0,.26,0,.52,0,.77a11.13,11.13,0,0,0,6.24,10h47.25a11.13,11.13,0,0,0,6.25-10c0-.27,0-.53,0-.8,0-.07,0-.14,0-.21V93.73c12-10.78,19.33-26.87,19.33-42.66C236.81,23.38,214.28,0,187.62,0s-49.19,23.38-49.19,51.07C138.43,66.86,145.78,83,157.77,93.73Zm29.85-82.47c20.55,0,37.92,18.22,37.92,39.8,0,13.17-6.77,27.19-17.26,35.7a5.63,5.63,0,0,0-2.08,4.37v9.29H169V91.14A5.63,5.63,0,0,0,167,86.76c-10.49-8.51-17.26-22.53-17.26-35.7C149.7,29.49,167.06,11.26,187.62,11.26Z" style="fill:#fff"/><path d="M176.86,146.1h21.52a8,8,0,0,0,7.93-7.1H168.94A8,8,0,0,0,176.86,146.1Z" style="fill:#fff"/><path d="M211.63,125.85c0-.12,0-.23,0-.35h-48c0,.11,0,.23,0,.35a10.23,10.23,0,0,0,5.78,9.21h36.47A10.24,10.24,0,0,0,211.63,125.85Z" style="fill:#fff"/><path d="M174.08,62.17l10.59-1.5-6.34,25.42a1.59,1.59,0,0,0,1,1.87,1.66,1.66,0,0,0,.58.11,1.61,1.61,0,0,0,1.4-.83L202.8,47.81a1.59,1.59,0,0,0-1.57-2.35l-10.4,1.16,3.56-23.23a1.59,1.59,0,0,0-3-1l-19,37.44a1.6,1.6,0,0,0,1.65,2.3Z" style="fill:#fff"/><path d="M12.21,235.81,0,268.93H11.37l1.19-3.87H24.48l1.19,3.87H37L24.83,235.81Zm3,20.5,3.28-10.67,3.28,10.67Z" style="fill:#fff"/><polygon points="60.66 251.51 49.14 235.81 38.82 235.81 38.82 268.93 48.85 268.93 48.85 252.15 61.06 268.93 70.69 268.93 70.69 235.81 60.66 235.81 60.66 251.51" style="fill:#fff"/><polygon points="89.9 246.98 83.74 235.81 72.47 235.81 84.88 255.78 84.88 268.93 94.91 268.93 94.91 255.78 107.22 235.81 95.95 235.81 89.9 246.98" style="fill:#fff"/><polygon points="109.2 244.55 118.09 244.55 118.09 268.93 128.12 268.93 128.12 244.55 136.95 244.55 136.95 235.81 109.2 235.81 109.2 244.55" style="fill:#fff"/><polygon points="162.17 247.53 150.3 247.53 150.3 235.81 140.27 235.81 140.27 268.93 150.3 268.93 150.3 256.27 162.17 256.27 162.17 268.93 172.2 268.93 172.2 235.81 162.17 235.81 162.17 247.53" style="fill:#fff"/><rect x="177.3" y="235.81" width="10.03" height="33.12" style="fill:#fff"/><polygon points="214.34 251.51 202.82 235.81 192.49 235.81 192.49 268.93 202.52 268.93 202.52 252.15 214.74 268.93 224.37 268.93 224.37 235.81 214.34 235.81 214.34 251.51" style="fill:#fff"/><path d="M233.89,235.32a5.24,5.24,0,0,0-5.17,5.21,4.34,4.34,0,0,0,4.32,4.62,3.91,3.91,0,0,0,1.29-.2,9.8,9.8,0,0,1-4.51,4.76l3.62,2.93c3.88-2.73,6.21-6.55,6.21-10.92C239.65,237.65,236.92,235.32,233.89,235.32Z" style="fill:#fff"/><path d="M258.61,258h6.16v1.19a9.79,9.79,0,0,1-5.17,1.49c-4.81,0-8-3.67-8-8.29s3.23-8.29,8-8.29a6.91,6.91,0,0,1,6.11,4.12l8.45-4.32c-2.09-4.27-6.66-8.64-14.55-8.64-10,0-18.22,6.5-18.22,17.13s8.19,17.13,18.22,17.13a19.63,19.63,0,0,0,15.14-6.71V249.27H258.61Z" style="fill:#fff"/><path d="M295.54,235.27c-10.23,0-18.12,7-18.12,17.13s7.9,17.13,18.12,17.13,18.13-6.95,18.13-17.13S305.77,235.27,295.54,235.27Zm0,25.42c-4.82,0-7.94-3.67-7.94-8.29s3.12-8.29,7.94-8.29,7.95,3.68,7.95,8.29S300.36,260.69,295.54,260.69Z" style="fill:#fff"/><polygon points="316.88 268.93 342.01 268.93 342.01 260.19 326.91 260.19 326.91 256.57 341.66 256.57 341.66 247.83 326.91 247.83 326.91 244.55 342.01 244.55 342.01 235.81 316.88 235.81 316.88 268.93" style="fill:#fff"/><path d="M355.4,245.25c0-.84.54-1.49,2.53-1.49a16.72,16.72,0,0,1,9.73,3.28l5.36-7.1A21.87,21.87,0,0,0,359,235.32c-9.08,0-13.75,5.36-13.75,11,0,13.06,18.47,9.83,18.47,13,0,1.29-1.79,1.79-3.68,1.79a15.43,15.43,0,0,1-10.67-4.27l-5.21,7.45c3.52,3.18,8.34,5.26,15.39,5.26,8.89,0,14.3-4.22,14.3-11.52C373.82,245.7,355.4,248.38,355.4,245.25Z" style="fill:#fff"/><path d="M273.19,70.26a14.65,14.65,0,0,1,4.69-3.08c-6.08-5-15.39-7.6-27.5-7.6-2.23,0-4.54.09-6.89.25-.26,1.82-.62,3.63-1,5.42,2.74-.24,5.4-.38,7.94-.38C257.83,64.88,266.92,66,273.19,70.26Z" style="fill:#fff"/><path d="M125.24,64.2c0,.14,0,.29,0,.44,2.42,0,4.94.14,7.53.38q-.62-2.69-1-5.41-3.58-.28-6.93-.28h-.57A12.19,12.19,0,0,1,125.24,64.2Z" style="fill:#fff"/><path d="M265.11,128.51a3.63,3.63,0,0,1,0-3.87c9.19-10.08,15.6-20,18.65-29.07l-.32,0a14.75,14.75,0,0,1-5-.89c-2.9,7.9-8.74,16.75-16.95,25.8a3.52,3.52,0,0,1-4.3-.11A219.47,219.47,0,0,0,225.84,95.8c-.35.36-.68.73-1,1.08v4.63a215.11,215.11,0,0,1,28.53,22.73,3.73,3.73,0,0,1,.16,4.5,228,228,0,0,1-46.06,33.34c-6,3.33-12.06,6.37-18.12,9.13a5.27,5.27,0,0,1-3.86-.14c-5.94-2.74-11.89-5.76-17.78-9.06a228.12,228.12,0,0,1-46-33.59,3.68,3.68,0,0,1,0-4.25,214.09,214.09,0,0,1,28.71-22.74V96.88c-.37-.37-.71-.75-1.07-1.13a219,219,0,0,0-31.31,24.38,3.72,3.72,0,0,1-4.19.21C98.12,102.87,91,86.16,96.95,75.58a16.13,16.13,0,0,1,3.19-4,18.5,18.5,0,0,1,2.17-1.69,12.14,12.14,0,0,1-1.4-5.35A22.51,22.51,0,0,0,92.32,73c-7.21,12.87.14,31.81,17.71,51.27a3.68,3.68,0,0,1,0,4C96,143.7,88.47,158.81,89.55,170.86a14.68,14.68,0,0,1,5.2-2.44c0-10,6.89-22.65,18.74-35.8a3.82,3.82,0,0,1,4.32-.34c12.45,12,28.53,23.85,47.26,34.35q6.61,3.7,13.3,6.95c.6.38,1.76,1.33.27,2.18C159,183.59,140,188,124.86,188a59.89,59.89,0,0,1-12.38-1.2,14.75,14.75,0,0,1-2.45,4.86,62,62,0,0,0,14.83,1.63c17,0,37.75-5,59.34-14a10.39,10.39,0,0,1,6.94.1h0c21.59,9.06,42.61,14.2,59.3,14.2,16.23,0,27.46-4.72,32.47-13.66C290.15,167,282.76,148,265.11,128.51Zm13.18,48.79c-5.07,9-17.94,10.95-27.85,10.95-15.23,0-34.31-4.5-54.13-12.49-1.5-.85-.34-1.73.26-2.09q6.71-3.25,13.43-7c18.79-10.44,34.92-22.27,47.43-34.2a3.83,3.83,0,0,1,4.28.39C277.22,150.24,284.19,166.79,278.29,177.3Z" style="fill:#fff"/><path d="M107.1,182.92a8.81,8.81,0,1,1-8.62-9A8.8,8.8,0,0,1,107.1,182.92Z" style="fill:#f7d072"/><circle cx="283.47" cy="80.84" r="8.81" transform="translate(196.68 362.54) rotate(-88.79)" style="fill:#f7d072"/><circle cx="113.06" cy="64.2" r="7.26" transform="translate(46.47 175.88) rotate(-88.78)" style="fill:#f7d072"/></svg>
